<!-- <svg width="154" height="182" viewBox="0 0 154 182" fill="" xmlns="http://www.w3.org/2000/svg">
<path d="M136.888 103.287C136.697 103.412 135.521 104.06 135.195 104.205C132.797 105.433 130.645 105.23 128.246 103.609C126.523 102.445 124.923 99.8829 124.297 98.9833C123.803 98.2735 123.205 97.3438 122.347 96.4621C120.754 94.8158 118.598 93.7313 114.868 93.8107C114.568 93.817 114.272 93.7382 114.007 93.5769C110.238 91.287 103.746 88.4948 97.5407 88.854C96.3109 88.9493 96.134 87.9217 95.7284 86.7716C94.5998 83.3065 93.7776 81.7019 93.0116 80.4461C92.0365 78.8478 91.6082 78.8354 90.7999 78.5745C89.8999 78.2841 88.9244 78.1744 88.326 76.9757C88.2528 76.8286 87.9591 76.1944 88.2919 75.7482C89.1158 74.6446 91.4007 73.1254 87.9683 70.8987C85.8754 69.541 86.8074 68.6679 87.1554 68.4619C87.637 68.1765 88.4675 67.9513 89.4606 68.1785C90.4539 68.406 91.6095 69.0863 92.7419 70.6103C93.8614 72.1171 97.6404 79.1478 99.9367 84.4857C99.9675 84.5578 100.017 84.942 100.44 84.989C101.081 85.0606 102.178 85.0626 102.402 85.0846C102.756 85.1192 102.761 84.7913 102.726 84.6581C99.4701 72.2442 95.7255 56.7942 89.2263 46.0445C89.0943 45.7359 89.2073 45.4131 89.6172 45.4596C95.4333 46.1439 97.1207 55.6547 100.529 61.9021C104.908 69.9333 107.475 66.786 107.891 61.3689C108.181 57.5821 107.312 52.7626 105.015 50.0604C104.469 49.2968 103.503 48.3297 103.098 47.7579C102.953 47.5524 102.931 47.2066 103.317 47.0961C103.477 47.0503 103.705 47.0319 104.015 47.045C106.703 47.2824 110.437 49.7821 112.006 52.5652C115.226 58.2767 114.986 61.3465 114.544 63.3707C113.789 66.8332 112.381 68.8236 114.127 74.2985C117.583 85.1359 116.679 82.875 114.712 89.6917C114.543 90.2099 114.82 90.5961 115.209 90.5549C119.734 90.0779 121.116 91.2551 122.093 91.8567C122.192 91.9177 122.278 92.0109 122.347 91.9932C122.52 91.923 122.582 91.6714 122.612 91.3325C122.984 88.4078 122.454 87.1725 121.873 85.4493C121.532 84.4372 121.147 83.2962 121.025 82.1847C120.828 80.7578 121.052 79.9549 121.426 78.8875C122.063 77.0677 122.443 75.6577 121.925 72.9191C120.781 67.1399 116.659 57.6238 114.025 52.1428C113.808 51.6699 112.004 47.7558 111.721 47.1831C111.527 46.7918 111.61 46.315 111.753 45.9444C111.873 45.6368 112.071 45.0203 112.071 45.0203C112.7 43.1785 113.033 41.7721 113.222 40.1647C113.832 34.9817 112.65 31.2947 109.387 28.2101C106.359 25.3473 100.966 24.08 93.7847 24.5449L92.2645 24.6441C85.5008 25.0877 77.8349 25.5905 72.0663 25.0424C66.4816 24.512 63.2201 23.4969 62.0943 21.9388C61.7293 21.4329 61.5879 20.8728 61.6504 20.175C61.7755 18.7803 62.5106 17.393 63.6667 16.3693C64.6668 15.4835 65.8493 15.007 66.6864 15.1576C68.189 15.2281 69.837 16.1999 71.7448 17.3253C73.454 18.3337 75.3916 19.4764 77.6446 20.2205C79.5496 20.8498 81.4352 21.1287 83.2462 21.0493C84.9552 20.9744 86.6292 20.5634 88.2215 19.827C88.8947 19.5154 89.3787 19.1584 89.5888 18.9474C89.6975 18.8384 89.7382 18.621 89.6069 18.4178C89.5285 18.2956 89.4298 18.2963 89.0804 18.2961C86.6824 18.2956 84.5469 17.8616 83.1908 17.4964C81.6913 17.0612 81.5623 16.6433 81.5764 16.4838C81.609 16.1146 82.3994 15.7634 83.3025 15.7169C87.7276 15.4885 91.1161 15.7637 93.3583 15.9449C94.1226 16.007 94.7263 16.056 95.1621 16.0661C95.6085 16.0765 96.1956 16.057 96.2196 16.0537C96.3534 16.0389 96.3921 15.941 96.4025 15.8997C96.4275 15.8015 96.3886 15.685 96.3386 15.6395C94.7786 14.1596 89.7103 11.9259 83.9287 10.7493C74.6264 8.8561 68.3947 10.4095 64.8056 12.047C64.0908 12.3729 62.2514 13.2886 60.6157 14.7451C58.813 16.3502 57.807 18.0995 57.6255 19.9432C57.3832 22.4114 58.9417 25.5999 67.7461 26.7725C77.068 28.0144 85.7769 27.8375 93.4602 27.6828C94.2634 27.6663 95.0512 27.6507 95.8223 27.6368C100.689 27.5554 104.809 28.9017 106.576 31.165C108.611 33.7722 108.732 37.2625 108.218 39.4589C108.069 40.0919 107.767 41.0454 107.404 41.6487C106.846 42.5178 106.232 42.7824 105.106 42.4407C101.509 41.3489 95.093 38.92 91.9822 37.7137C89.2117 36.6392 87.0236 35.7904 85.1679 35.2676C79.6591 33.7163 77.9389 34.7436 74.241 37.4291C73.3493 38.076 72.4431 38.7853 71.3937 39.606C69.8757 40.7936 68.1549 42.1401 65.8662 43.7817C64.4857 44.7718 62.6762 45.9161 60.7602 47.1272C58.8119 48.3592 56.7974 49.633 54.8242 50.9917C48.4952 55.2603 47.4852 60.9837 46.3161 67.611C45.4863 72.3135 44.5458 77.6433 41.42 83.0406C41.0775 83.6329 38.368 87.4089 37.7916 88.4806C35.6505 92.4353 34.5002 95.8481 34.9538 101.587C35.293 105.877 34.0155 109.611 32.7806 113.223C31.8082 116.065 30.8904 118.749 30.7388 121.624C30.6244 123.402 30.6801 125.063 30.7342 126.67C30.824 129.336 30.8585 131.993 30.1505 134.294C29.6069 136.06 28.2282 137.8 27.6934 139.509C27.0056 141.707 26.5241 144.833 26.5241 147.705C26.4807 150.124 24.9165 151.903 23.261 153.786C21.8018 155.445 20.2748 157.188 19.7194 159.445C19.6453 159.746 19.596 159.974 19.4994 160.153C19.3552 160.42 19.1393 160.591 18.8499 160.827C18.2901 161.284 17.6132 161.885 16.8738 163.594C16.2496 165.036 16.4289 167.608 16.9999 168.859C17.0879 169.052 17.3339 169.506 17.7122 169.556C17.9686 169.59 18.2262 169.433 18.4808 169.093C18.4808 169.093 20.0977 166.944 20.7279 166.299C20.9489 166.079 21.2121 166.119 21.3625 166.249C21.5401 166.402 21.5805 166.658 21.4708 166.934C21.4067 167.094 20.4319 169.088 19.8625 170.769L19.8491 170.811C19.7717 171.049 19.6757 171.346 19.8138 171.592C19.9483 171.831 20.2649 171.962 20.8122 172.003C21.0535 172.014 21.2861 172.019 21.5112 172.019C24.5075 172.019 26.0832 171.105 26.8932 170.3C27.2094 169.911 27.2723 169.743 27.3763 169.465C27.4038 169.392 27.4342 169.31 27.476 169.206C28.0753 167.359 28.4772 165.225 28.5247 163.631C28.5247 162.956 28.6915 162.764 29.0954 162.3C30.6728 160.472 30.6744 158.056 30.6761 155.72C30.6777 153.572 30.679 151.352 31.9079 149.601C35.2589 145.293 37.0002 140.256 38.6846 135.386C40.4215 130.361 42.2178 125.166 45.7831 120.833C46.6813 119.773 47.562 119.195 48.143 119.303C48.4268 119.352 48.6519 119.561 48.8129 119.927C49.5759 121.549 49.3466 123.73 49.1244 125.84C48.8732 128.224 48.6363 130.477 49.736 131.949C50.4706 133.043 50.6688 134.195 50.3072 135.287C49.8377 137.011 48.4083 142.259 45.0005 144.582C44.9183 144.638 44.0207 145.373 43.7399 145.685C43.5932 145.849 43.4861 146.068 43.3622 146.322C43.0637 146.934 42.6925 147.696 41.5212 148.094C40.2386 148.465 39.0317 149.36 38.3726 150.43C36.5701 153.356 36.6476 156.978 36.817 158.016C36.8828 158.419 37.0009 158.948 37.3364 159.473C37.541 159.795 37.7786 159.986 38.0235 160.026C38.2248 160.059 38.4258 159.992 38.6161 159.826C38.8146 159.652 39.0489 159.341 39.3454 158.946C39.811 158.327 40.39 157.557 41.12 156.941C41.3538 156.744 41.5842 156.79 41.721 156.899C41.8493 157.002 41.908 157.165 41.8708 157.316C41.8028 157.589 41.5855 157.983 41.3092 158.481C40.9591 159.115 40.5233 159.903 40.1797 160.833C40.0943 161.039 40.0835 161.231 40.1471 161.4C40.2459 161.664 40.4914 161.773 40.5651 161.801C42.7341 162.596 45.974 161.652 47.7873 159.694C48.6965 158.712 49.1387 157.411 49.1387 155.716C49.1387 155.286 49.3169 154.618 49.7044 154.173C50.9817 152.916 51.5108 150.955 52.0707 148.878C52.2038 148.385 52.3415 147.875 52.4902 147.371C53.0686 145.415 53.8309 143.734 55.6721 141.883C58.0615 139.317 59.141 136.896 59.8224 135.405C60.516 133.8 60.6678 132.904 61.1747 131.968C62.1718 130.161 65.5375 129.82 66.781 130.663C67.2967 131.014 67.4113 131.498 67.1224 132.104C66.9339 132.496 65.1585 135.797 64.3231 138.053C63.9131 139.16 62.9858 139.573 62.434 139.944C59.1006 142.183 58.4927 146.4 58.3957 148.128C58.3655 148.667 58.4172 149.386 58.6537 149.787C58.7906 150.019 58.9824 150.169 59.1932 150.208C59.4015 150.247 59.6149 150.177 59.8101 150.006C60.0048 149.836 61.8094 147.742 62.0255 147.525C62.324 147.224 62.5862 147.274 62.7193 147.41C62.861 147.554 62.9204 147.839 62.735 148.155C62.4835 148.582 61.2374 150.738 61.3833 151.21C61.6308 152.009 62.3398 151.993 63.0502 152.001C68.7691 151.443 70.7909 146.767 70.7909 146.767C70.9295 146.494 71.1013 146.135 71.0105 145.162C70.847 143.408 70.4864 137.328 73.5458 133.542C74.4559 132.382 74.9896 133.166 75.1962 133.684C75.5665 134.614 76.114 136.226 76.4253 137.034C77.0862 138.75 77.5381 140.016 78.2995 141.714C79.5845 144.578 81.5155 144.974 83.9053 144.629C86.9955 144.183 89.1262 144.469 91.2025 144.703C92.966 144.872 93.9409 145.008 95.2367 143.647C95.9431 142.905 97.2978 141.546 98.2082 140.067C98.7846 139.132 98.9632 138.54 98.8178 137.084C98.3899 129.776 101.698 123.427 107.66 120.104C108.555 119.688 109.548 119.815 110.156 120.753C111.493 123.033 114.604 128.869 114.604 133.823C114.604 134.291 114.444 134.806 114.258 135.402C113.836 136.756 113.312 138.44 114.287 140.739C114.347 142.728 113.706 144.281 113.141 145.652C112.335 147.603 111.699 149.145 113.902 150.663C114.525 151.091 115.333 151.475 116.373 151.837C116.434 151.858 116.494 151.869 116.552 151.869C116.642 151.869 116.724 151.843 116.791 151.794C116.867 151.737 116.915 151.654 116.924 151.561C116.985 150.988 117.044 149 117.137 148.531C117.175 148.343 117.259 148.118 117.447 148.105C117.621 148.094 117.796 148.258 117.845 148.417C118.021 148.895 118.469 150.839 118.593 151.148C118.699 151.414 118.825 151.594 118.994 151.651C119.878 151.944 121.084 150.198 121.536 149.299C122.315 147.448 121.995 144.695 120.725 142.297C120.539 141.836 120.512 141.651 120.51 141.232C120.98 139.05 120.638 137.944 120.276 136.774C120.067 136.099 119.856 135.4 119.761 134.442C119.419 131.005 121.25 120.125 121.422 119.007C121.733 116.984 121.991 115.54 122.103 114.054C122.211 112.616 121.698 110.931 120.828 109.862C120.03 108.882 119.068 107.984 118.137 107.116C117.317 106.35 116.542 105.627 115.908 104.881C114.883 103.675 114.557 101.914 114.566 101.417C114.57 101.283 114.591 101.197 114.632 101.154C114.664 101.121 114.716 101.108 114.792 101.114C116.204 101.23 117.334 102.306 118.765 103.667C120.045 104.885 121.496 106.266 123.529 107.302C127.546 109.35 131.359 109.047 135.188 106.378C136.816 105.051 137.32 103.913 137.401 103.755C137.502 103.557 137.354 102.981 136.888 103.287ZM47.8788 85.0317C48.1118 82.9033 49.4795 80.6352 50.0795 77.9767C50.9344 74.9755 51.1709 69.7308 51.6355 65.5729C51.8672 63.5006 52.5567 62.6237 53.8591 62.4397C54.719 62.351 55.6153 63.2107 56.0773 66.1384C57.6796 78.1274 60.8133 79.7858 62.6335 82.9612C62.6665 83.0186 62.698 83.0783 62.7262 83.1389C63.1923 84.1344 63.3417 85.0613 62.6104 85.7334C62.1812 86.128 60.7545 86.7175 58.3277 85.0363C55.416 83.0191 54.9767 80.8465 50.1492 85.285C50.1492 85.285 49.5031 85.8616 48.8838 86.0201C48.3595 86.1543 47.7813 85.9205 47.8788 85.0317ZM73.1517 129.014C72.9782 129.138 72.7828 129.053 72.4997 128.845C70.5821 127.436 65.2674 126.325 60.7816 128.39C56.166 130.516 51.9389 133.516 51.6558 128.271C51.5999 123.623 52.4618 121.599 51.0549 118.833C51.0549 118.833 50.9949 118.739 50.9328 118.626C50.8118 118.406 50.9586 118.358 51.0046 118.354C57.4875 117.771 59.218 115.443 59.6222 114.629C59.7108 114.45 59.5942 114.257 59.4292 114.236C57.9401 114.047 50.5146 113.791 47.5288 114.287C42.2767 115.159 38.749 124.248 38.0668 125.107C37.2788 126.099 36.285 125.34 36.285 124.435C36.285 122.919 37.0643 115.558 37.5817 113.006C38.401 108.966 39.53 105.965 42.9598 105.359C45.3635 104.934 51.262 104.216 50.8563 102.381C50.5195 100.865 50.3518 99.6782 50.3485 99.0073C50.3441 98.1112 50.743 97.932 51.5328 98.1335C52.1167 98.2823 52.8992 98.6807 53.9022 98.952C61.3228 100.958 65.1246 99.3602 69.547 97.1021C69.672 97.0382 71.3169 96.1883 71.417 96.1241C72.2141 95.614 73.2153 96.5354 72.772 97.6251C72.5373 98.2022 72.2192 98.4691 71.5383 99.2224C70.0779 100.838 64.6294 105.97 67.9116 114.645C70.4708 121.41 71.2153 123.161 73.0312 127.774C73.3251 128.521 73.368 128.859 73.1517 129.014ZM86.9471 140.718C86.5852 141.364 86.0277 141.824 84.9433 141.824C83.6103 141.824 82.667 141.365 82.1013 140.672C80.9408 139.251 80.7963 137.305 81.0805 136.03C81.2603 135.224 81.682 134.693 82.1341 134.539C82.3326 134.463 82.4395 134.48 82.5378 134.627C82.7391 134.998 83.4596 136.309 83.6257 136.581C83.8202 136.9 84.1724 137.181 84.4597 137.313C85.0016 137.562 85.6933 137.778 86.0589 137.969C87.1781 138.525 87.4359 139.844 86.9471 140.718ZM108.342 116.798C108.201 117.06 108.075 117.103 107.886 117.202C101.164 120.124 95.8208 128.008 96.7901 137.482C96.8092 137.977 96.675 138.67 96.2693 139.137C96.2693 139.137 94.8587 140.783 93.9706 141.485C93.6672 141.724 93.3253 141.92 92.532 141.861C91.2888 141.77 89.5378 141.644 89.5378 141.644C89.0679 141.553 89.2689 141.084 89.3046 140.981C89.338 140.883 89.3708 140.769 89.3963 140.637C89.6509 139.215 89.4691 137.224 87.7303 136.479C87.4803 136.317 87.6372 136.053 87.6673 135.967C88.4138 133.855 89.3475 131.241 90.0966 127.576C90.5491 125.36 90.2713 124.023 89.595 122.43C89.4454 122.077 89.2494 121.751 89.0265 121.454L87.969 119.843C87.6742 119.45 87.7514 119.036 88.1766 118.862L89.6671 118.425C90.0308 118.276 89.9958 117.643 89.6456 117.541L88.8765 117.258C88.1487 116.914 87.7054 116.246 87.3789 115.731C87.3252 115.646 87.2313 115.475 87.1418 115.289C86.9783 114.95 86.8597 114.584 86.7915 114.203L86.702 113.703C86.6921 113.449 86.3436 113.446 86.1911 113.621C85.0152 114.978 84.6516 117.061 85.5151 118.716C86.7246 121.035 86.6758 120.807 87.7534 122.561C88.1096 123.14 88.3225 123.611 88.4402 124.184C88.603 124.975 88.5566 126.981 88.0952 128.413L86.872 132.682C86.1337 134.591 85.3103 134.131 84.8428 133.774C84.24 133.314 83.6785 132.12 83.374 130.855C83.374 130.855 82.533 127.291 82.562 122.555C82.5061 121.983 82.1669 121.047 81.0852 121.866L78.2078 124.61C77.8014 124.858 77.0966 124.722 77.2393 123.647C77.2393 123.647 79.3073 113.047 81.5344 107.076C83.2064 102.205 81.3452 99.4598 79.1263 96.4444C75.5016 91.1295 74.6895 83.9804 83.1301 87.8967C85.3963 89.0873 86.2063 87.5438 89.0019 87.2655C91.0072 87.0663 91.6665 87.9986 91.8379 88.3932C91.991 88.7458 92.0438 89.1358 92.0616 89.3401C92.0695 89.4288 92.0438 89.4874 91.9593 89.489C87.2271 89.7981 81.5802 94.315 85.9414 101.403C90.224 108.346 102.009 110.681 107.273 104.061C107.342 103.972 107.36 103.772 107.254 103.672C107.2 103.619 107.107 103.571 106.984 103.625C105.833 104.126 104.774 104.504 103.711 104.705C101.196 105.18 95.8694 104.834 93.3513 101.532C91.9105 99.6431 91.949 97.4618 94.3844 97.1287C95.7402 97.0035 96.4038 97.2902 96.9909 97.3028C98.5098 97.2793 98.8216 95.5336 98.5087 94.7445C98.2482 93.9884 97.643 93.0741 96.7921 92.2794C96.0064 91.6376 96.4315 90.9659 96.9423 90.9821C101.817 91.3011 106.477 92.2705 108.235 98.9937C108.302 99.2454 108.422 100.095 108.608 100.412C108.985 101.055 109.642 101.538 110.365 102.263C112.134 104.035 113.721 107.195 108.342 116.798ZM114.674 112.64C115.53 110.583 116.692 111.963 117.247 114.221C117.951 117.09 118.052 121.705 117.755 124.085C117.368 127.19 116.098 126.568 115.418 125.464C114.345 123.72 113.183 121.399 112.374 119.806C112.349 119.758 112.326 119.709 112.305 119.658C111.929 118.762 111.872 118.053 112.266 117.387C112.672 116.672 114.28 113.586 114.674 112.64Z" fill="rgb(190,200,199)"/>
</svg> -->
<svg width="154" height="182" viewBox="0 0 154 182" fill="" xmlns="http://www.w3.org/2000/svg">
<path d="M136.888 103.287C136.697 103.412 135.521 104.06 135.195 104.205C132.797 105.433 130.645 105.23 128.246 103.609C126.523 102.445 124.923 99.8829 124.297 98.9833C123.803 98.2735 123.205 97.3438 122.347 96.4621C120.754 94.8158 118.598 93.7313 114.868 93.8107C114.568 93.817 114.272 93.7382 114.007 93.5769C110.238 91.287 103.746 88.4948 97.5407 88.854C96.3109 88.9493 96.134 87.9217 95.7284 86.7716C94.5998 83.3065 93.7776 81.7019 93.0116 80.4461C92.0365 78.8478 91.6082 78.8354 90.7999 78.5745C89.8999 78.2841 88.9244 78.1744 88.326 76.9757C88.2528 76.8286 87.9591 76.1944 88.2919 75.7482C89.1158 74.6446 91.4007 73.1254 87.9683 70.8987C85.8754 69.541 86.8074 68.6679 87.1554 68.4619C87.637 68.1765 88.4675 67.9513 89.4606 68.1785C90.4539 68.406 91.6095 69.0863 92.7419 70.6103C93.8614 72.1171 97.6404 79.1478 99.9367 84.4857C99.9675 84.5578 100.017 84.942 100.44 84.989C101.081 85.0606 102.178 85.0626 102.402 85.0846C102.756 85.1192 102.761 84.7913 102.726 84.6581C99.4701 72.2442 95.7255 56.7942 89.2263 46.0445C89.0943 45.7359 89.2073 45.4131 89.6172 45.4596C95.4333 46.1439 97.1207 55.6547 100.529 61.9021C104.908 69.9333 107.475 66.786 107.891 61.3689C108.181 57.5821 107.312 52.7626 105.015 50.0604C104.469 49.2968 103.503 48.3297 103.098 47.7579C102.953 47.5524 102.931 47.2066 103.317 47.0961C103.477 47.0503 103.705 47.0319 104.015 47.045C106.703 47.2824 110.437 49.7821 112.006 52.5652C115.226 58.2767 114.986 61.3465 114.544 63.3707C113.789 66.8332 112.381 68.8236 114.127 74.2985C117.583 85.1359 116.679 82.875 114.712 89.6917C114.543 90.2099 114.82 90.5961 115.209 90.5549C119.734 90.0779 121.116 91.2551 122.093 91.8567C122.192 91.9177 122.278 92.0109 122.347 91.9932C122.52 91.923 122.582 91.6714 122.612 91.3325C122.984 88.4078 122.454 87.1725 121.873 85.4493C121.532 84.4372 121.147 83.2962 121.025 82.1847C120.828 80.7578 121.052 79.9549 121.426 78.8875C122.063 77.0677 122.443 75.6577 121.925 72.9191C120.781 67.1399 116.659 57.6238 114.025 52.1428C113.808 51.6699 112.004 47.7558 111.721 47.1831C111.527 46.7918 111.61 46.315 111.753 45.9444C111.873 45.6368 112.071 45.0203 112.071 45.0203C112.7 43.1785 113.033 41.7721 113.222 40.1647C113.832 34.9817 112.65 31.2947 109.387 28.2101C106.359 25.3473 100.966 24.08 93.7847 24.5449L92.2645 24.6441C85.5008 25.0877 77.8349 25.5905 72.0663 25.0424C66.4816 24.512 63.2201 23.4969 62.0943 21.9388C61.7293 21.4329 61.5879 20.8728 61.6504 20.175C61.7755 18.7803 62.5106 17.393 63.6667 16.3693C64.6668 15.4835 65.8493 15.007 66.6864 15.1576C68.189 15.2281 69.837 16.1999 71.7448 17.3253C73.454 18.3337 75.3916 19.4764 77.6446 20.2205C79.5496 20.8498 81.4352 21.1287 83.2462 21.0493C84.9552 20.9744 86.6292 20.5634 88.2215 19.827C88.8947 19.5154 89.3787 19.1584 89.5888 18.9474C89.6975 18.8384 89.7382 18.621 89.6069 18.4178C89.5285 18.2956 89.4298 18.2963 89.0804 18.2961C86.6824 18.2956 84.5469 17.8616 83.1908 17.4964C81.6913 17.0612 81.5623 16.6433 81.5764 16.4838C81.609 16.1146 82.3994 15.7634 83.3025 15.7169C87.7276 15.4885 91.1161 15.7637 93.3583 15.9449C94.1226 16.007 94.7263 16.056 95.1621 16.0661C95.6085 16.0765 96.1956 16.057 96.2196 16.0537C96.3534 16.0389 96.3921 15.941 96.4025 15.8997C96.4275 15.8015 96.3886 15.685 96.3386 15.6395C94.7786 14.1596 89.7103 11.9259 83.9287 10.7493C74.6264 8.8561 68.3947 10.4095 64.8056 12.047C64.0908 12.3729 62.2514 13.2886 60.6157 14.7451C58.813 16.3502 57.807 18.0995 57.6255 19.9432C57.3832 22.4114 58.9417 25.5999 67.7461 26.7725C77.068 28.0144 85.7769 27.8375 93.4602 27.6828C94.2634 27.6663 95.0512 27.6507 95.8223 27.6368C100.689 27.5554 104.809 28.9017 106.576 31.165C108.611 33.7722 108.732 37.2625 108.218 39.4589C108.069 40.0919 107.767 41.0454 107.404 41.6487C106.846 42.5178 106.232 42.7824 105.106 42.4407C101.509 41.3489 95.093 38.92 91.9822 37.7137C89.2117 36.6392 87.0236 35.7904 85.1679 35.2676C79.6591 33.7163 77.9389 34.7436 74.241 37.4291C73.3493 38.076 72.4431 38.7853 71.3937 39.606C69.8757 40.7936 68.1549 42.1401 65.8662 43.7817C64.4857 44.7718 62.6762 45.9161 60.7602 47.1272C58.8119 48.3592 56.7974 49.633 54.8242 50.9917C48.4952 55.2603 47.4852 60.9837 46.3161 67.611C45.4863 72.3135 44.5458 77.6433 41.42 83.0406C41.0775 83.6329 38.368 87.4089 37.7916 88.4806C35.6505 92.4353 34.5002 95.8481 34.9538 101.587C35.293 105.877 34.0155 109.611 32.7806 113.223C31.8082 116.065 30.8904 118.749 30.7388 121.624C30.6244 123.402 30.6801 125.063 30.7342 126.67C30.824 129.336 30.8585 131.993 30.1505 134.294C29.6069 136.06 28.2282 137.8 27.6934 139.509C27.0056 141.707 26.5241 144.833 26.5241 147.705C26.4807 150.124 24.9165 151.903 23.261 153.786C21.8018 155.445 20.2748 157.188 19.7194 159.445C19.6453 159.746 19.596 159.974 19.4994 160.153C19.3552 160.42 19.1393 160.591 18.8499 160.827C18.2901 161.284 17.6132 161.885 16.8738 163.594C16.2496 165.036 16.4289 167.608 16.9999 168.859C17.0879 169.052 17.3339 169.506 17.7122 169.556C17.9686 169.59 18.2262 169.433 18.4808 169.093C18.4808 169.093 20.0977 166.944 20.7279 166.299C20.9489 166.079 21.2121 166.119 21.3625 166.249C21.5401 166.402 21.5805 166.658 21.4708 166.934C21.4067 167.094 20.4319 169.088 19.8625 170.769L19.8491 170.811C19.7717 171.049 19.6757 171.346 19.8138 171.592C19.9483 171.831 20.2649 171.962 20.8122 172.003C21.0535 172.014 21.2861 172.019 21.5112 172.019C24.5075 172.019 26.0832 171.105 26.8932 170.3C27.2094 169.911 27.2723 169.743 27.3763 169.465C27.4038 169.392 27.4342 169.31 27.476 169.206C28.0753 167.359 28.4772 165.225 28.5247 163.631C28.5247 162.956 28.6915 162.764 29.0954 162.3C30.6728 160.472 30.6744 158.056 30.6761 155.72C30.6777 153.572 30.679 151.352 31.9079 149.601C35.2589 145.293 37.0002 140.256 38.6846 135.386C40.4215 130.361 42.2178 125.166 45.7831 120.833C46.6813 119.773 47.562 119.195 48.143 119.303C48.4268 119.352 48.6519 119.561 48.8129 119.927C49.5759 121.549 49.3466 123.73 49.1244 125.84C48.8732 128.224 48.6363 130.477 49.736 131.949C50.4706 133.043 50.6688 134.195 50.3072 135.287C49.8377 137.011 48.4083 142.259 45.0005 144.582C44.9183 144.638 44.0207 145.373 43.7399 145.685C43.5932 145.849 43.4861 146.068 43.3622 146.322C43.0637 146.934 42.6925 147.696 41.5212 148.094C40.2386 148.465 39.0317 149.36 38.3726 150.43C36.5701 153.356 36.6476 156.978 36.817 158.016C36.8828 158.419 37.0009 158.948 37.3364 159.473C37.541 159.795 37.7786 159.986 38.0235 160.026C38.2248 160.059 38.4258 159.992 38.6161 159.826C38.8146 159.652 39.0489 159.341 39.3454 158.946C39.811 158.327 40.39 157.557 41.12 156.941C41.3538 156.744 41.5842 156.79 41.721 156.899C41.8493 157.002 41.908 157.165 41.8708 157.316C41.8028 157.589 41.5855 157.983 41.3092 158.481C40.9591 159.115 40.5233 159.903 40.1797 160.833C40.0943 161.039 40.0835 161.231 40.1471 161.4C40.2459 161.664 40.4914 161.773 40.5651 161.801C42.7341 162.596 45.974 161.652 47.7873 159.694C48.6965 158.712 49.1387 157.411 49.1387 155.716C49.1387 155.286 49.3169 154.618 49.7044 154.173C50.9817 152.916 51.5108 150.955 52.0707 148.878C52.2038 148.385 52.3415 147.875 52.4902 147.371C53.0686 145.415 53.8309 143.734 55.6721 141.883C58.0615 139.317 59.141 136.896 59.8224 135.405C60.516 133.8 60.6678 132.904 61.1747 131.968C62.1718 130.161 65.5375 129.82 66.781 130.663C67.2967 131.014 67.4113 131.498 67.1224 132.104C66.9339 132.496 65.1585 135.797 64.3231 138.053C63.9131 139.16 62.9858 139.573 62.434 139.944C59.1006 142.183 58.4927 146.4 58.3957 148.128C58.3655 148.667 58.4172 149.386 58.6537 149.787C58.7906 150.019 58.9824 150.169 59.1932 150.208C59.4015 150.247 59.6149 150.177 59.8101 150.006C60.0048 149.836 61.8094 147.742 62.0255 147.525C62.324 147.224 62.5862 147.274 62.7193 147.41C62.861 147.554 62.9204 147.839 62.735 148.155C62.4835 148.582 61.2374 150.738 61.3833 151.21C61.6308 152.009 62.3398 151.993 63.0502 152.001C68.7691 151.443 70.7909 146.767 70.7909 146.767C70.9295 146.494 71.1013 146.135 71.0105 145.162C70.847 143.408 70.4864 137.328 73.5458 133.542C74.4559 132.382 74.9896 133.166 75.1962 133.684C75.5665 134.614 76.114 136.226 76.4253 137.034C77.0862 138.75 77.5381 140.016 78.2995 141.714C79.5845 144.578 81.5155 144.974 83.9053 144.629C86.9955 144.183 89.1262 144.469 91.2025 144.703C92.966 144.872 93.9409 145.008 95.2367 143.647C95.9431 142.905 97.2978 141.546 98.2082 140.067C98.7846 139.132 98.9632 138.54 98.8178 137.084C98.3899 129.776 101.698 123.427 107.66 120.104C108.555 119.688 109.548 119.815 110.156 120.753C111.493 123.033 114.604 128.869 114.604 133.823C114.604 134.291 114.444 134.806 114.258 135.402C113.836 136.756 113.312 138.44 114.287 140.739C114.347 142.728 113.706 144.281 113.141 145.652C112.335 147.603 111.699 149.145 113.902 150.663C114.525 151.091 115.333 151.475 116.373 151.837C116.434 151.858 116.494 151.869 116.552 151.869C116.642 151.869 116.724 151.843 116.791 151.794C116.867 151.737 116.915 151.654 116.924 151.561C116.985 150.988 117.044 149 117.137 148.531C117.175 148.343 117.259 148.118 117.447 148.105C117.621 148.094 117.796 148.258 117.845 148.417C118.021 148.895 118.469 150.839 118.593 151.148C118.699 151.414 118.825 151.594 118.994 151.651C119.878 151.944 121.084 150.198 121.536 149.299C122.315 147.448 121.995 144.695 120.725 142.297C120.539 141.836 120.512 141.651 120.51 141.232C120.98 139.05 120.638 137.944 120.276 136.774C120.067 136.099 119.856 135.4 119.761 134.442C119.419 131.005 121.25 120.125 121.422 119.007C121.733 116.984 121.991 115.54 122.103 114.054C122.211 112.616 121.698 110.931 120.828 109.862C120.03 108.882 119.068 107.984 118.137 107.116C117.317 106.35 116.542 105.627 115.908 104.881C114.883 103.675 114.557 101.914 114.566 101.417C114.57 101.283 114.591 101.197 114.632 101.154C114.664 101.121 114.716 101.108 114.792 101.114C116.204 101.23 117.334 102.306 118.765 103.667C120.045 104.885 121.496 106.266 123.529 107.302C127.546 109.35 131.359 109.047 135.188 106.378C136.816 105.051 137.32 103.913 137.401 103.755C137.502 103.557 137.354 102.981 136.888 103.287ZM47.8788 85.0317C48.1118 82.9033 49.4795 80.6352 50.0795 77.9767C50.9344 74.9755 51.1709 69.7308 51.6355 65.5729C51.8672 63.5006 52.5567 62.6237 53.8591 62.4397C54.719 62.351 55.6153 63.2107 56.0773 66.1384C57.6796 78.1274 60.8133 79.7858 62.6335 82.9612C62.6665 83.0186 62.698 83.0783 62.7262 83.1389C63.1923 84.1344 63.3417 85.0613 62.6104 85.7334C62.1812 86.128 60.7545 86.7175 58.3277 85.0363C55.416 83.0191 54.9767 80.8465 50.1492 85.285C50.1492 85.285 49.5031 85.8616 48.8838 86.0201C48.3595 86.1543 47.7813 85.9205 47.8788 85.0317ZM73.1517 129.014C72.9782 129.138 72.7828 129.053 72.4997 128.845C70.5821 127.436 65.2674 126.325 60.7816 128.39C56.166 130.516 51.9389 133.516 51.6558 128.271C51.5999 123.623 52.4618 121.599 51.0549 118.833C51.0549 118.833 50.9949 118.739 50.9328 118.626C50.8118 118.406 50.9586 118.358 51.0046 118.354C57.4875 117.771 59.218 115.443 59.6222 114.629C59.7108 114.45 59.5942 114.257 59.4292 114.236C57.9401 114.047 50.5146 113.791 47.5288 114.287C42.2767 115.159 38.749 124.248 38.0668 125.107C37.2788 126.099 36.285 125.34 36.285 124.435C36.285 122.919 37.0643 115.558 37.5817 113.006C38.401 108.966 39.53 105.965 42.9598 105.359C45.3635 104.934 51.262 104.216 50.8563 102.381C50.5195 100.865 50.3518 99.6782 50.3485 99.0073C50.3441 98.1112 50.743 97.932 51.5328 98.1335C52.1167 98.2823 52.8992 98.6807 53.9022 98.952C61.3228 100.958 65.1246 99.3602 69.547 97.1021C69.672 97.0382 71.3169 96.1883 71.417 96.1241C72.2141 95.614 73.2153 96.5354 72.772 97.6251C72.5373 98.2022 72.2192 98.4691 71.5383 99.2224C70.0779 100.838 64.6294 105.97 67.9116 114.645C70.4708 121.41 71.2153 123.161 73.0312 127.774C73.3251 128.521 73.368 128.859 73.1517 129.014ZM86.9471 140.718C86.5852 141.364 86.0277 141.824 84.9433 141.824C83.6103 141.824 82.667 141.365 82.1013 140.672C80.9408 139.251 80.7963 137.305 81.0805 136.03C81.2603 135.224 81.682 134.693 82.1341 134.539C82.3326 134.463 82.4395 134.48 82.5378 134.627C82.7391 134.998 83.4596 136.309 83.6257 136.581C83.8202 136.9 84.1724 137.181 84.4597 137.313C85.0016 137.562 85.6933 137.778 86.0589 137.969C87.1781 138.525 87.4359 139.844 86.9471 140.718ZM108.342 116.798C108.201 117.06 108.075 117.103 107.886 117.202C101.164 120.124 95.8208 128.008 96.7901 137.482C96.8092 137.977 96.675 138.67 96.2693 139.137C96.2693 139.137 94.8587 140.783 93.9706 141.485C93.6672 141.724 93.3253 141.92 92.532 141.861C91.2888 141.77 89.5378 141.644 89.5378 141.644C89.0679 141.553 89.2689 141.084 89.3046 140.981C89.338 140.883 89.3708 140.769 89.3963 140.637C89.6509 139.215 89.4691 137.224 87.7303 136.479C87.4803 136.317 87.6372 136.053 87.6673 135.967C88.4138 133.855 89.3475 131.241 90.0966 127.576C90.5491 125.36 90.2713 124.023 89.595 122.43C89.4454 122.077 89.2494 121.751 89.0265 121.454L87.969 119.843C87.6742 119.45 87.7514 119.036 88.1766 118.862L89.6671 118.425C90.0308 118.276 89.9958 117.643 89.6456 117.541L88.8765 117.258C88.1487 116.914 87.7054 116.246 87.3789 115.731C87.3252 115.646 87.2313 115.475 87.1418 115.289C86.9783 114.95 86.8597 114.584 86.7915 114.203L86.702 113.703C86.6921 113.449 86.3436 113.446 86.1911 113.621C85.0152 114.978 84.6516 117.061 85.5151 118.716C86.7246 121.035 86.6758 120.807 87.7534 122.561C88.1096 123.14 88.3225 123.611 88.4402 124.184C88.603 124.975 88.5566 126.981 88.0952 128.413L86.872 132.682C86.1337 134.591 85.3103 134.131 84.8428 133.774C84.24 133.314 83.6785 132.12 83.374 130.855C83.374 130.855 82.533 127.291 82.562 122.555C82.5061 121.983 82.1669 121.047 81.0852 121.866L78.2078 124.61C77.8014 124.858 77.0966 124.722 77.2393 123.647C77.2393 123.647 79.3073 113.047 81.5344 107.076C83.2064 102.205 81.3452 99.4598 79.1263 96.4444C75.5016 91.1295 74.6895 83.9804 83.1301 87.8967C85.3963 89.0873 86.2063 87.5438 89.0019 87.2655C91.0072 87.0663 91.6665 87.9986 91.8379 88.3932C91.991 88.7458 92.0438 89.1358 92.0616 89.3401C92.0695 89.4288 92.0438 89.4874 91.9593 89.489C87.2271 89.7981 81.5802 94.315 85.9414 101.403C90.224 108.346 102.009 110.681 107.273 104.061C107.342 103.972 107.36 103.772 107.254 103.672C107.2 103.619 107.107 103.571 106.984 103.625C105.833 104.126 104.774 104.504 103.711 104.705C101.196 105.18 95.8694 104.834 93.3513 101.532C91.9105 99.6431 91.949 97.4618 94.3844 97.1287C95.7402 97.0035 96.4038 97.2902 96.9909 97.3028C98.5098 97.2793 98.8216 95.5336 98.5087 94.7445C98.2482 93.9884 97.643 93.0741 96.7921 92.2794C96.0064 91.6376 96.4315 90.9659 96.9423 90.9821C101.817 91.3011 106.477 92.2705 108.235 98.9937C108.302 99.2454 108.422 100.095 108.608 100.412C108.985 101.055 109.642 101.538 110.365 102.263C112.134 104.035 113.721 107.195 108.342 116.798ZM114.674 112.64C115.53 110.583 116.692 111.963 117.247 114.221C117.951 117.09 118.052 121.705 117.755 124.085C117.368 127.19 116.098 126.568 115.418 125.464C114.345 123.72 113.183 121.399 112.374 119.806C112.349 119.758 112.326 119.709 112.305 119.658C111.929 118.762 111.872 118.053 112.266 117.387C112.672 116.672 114.28 113.586 114.674 112.64Z" fill="#222222"/>
</svg>
